<svg width="30" height="30" viewBox="0 0 30 30" fill="none" xmlns="http://www.w3.org/2000/svg">
<g clip-path="url(#clip0_932_2009)">
<path fill-rule="evenodd" clip-rule="evenodd" d="M5.56219 9.64636C5.56242 9.47905 5.629 9.31866 5.74732 9.20037C5.86564 9.08208 6.02605 9.01555 6.19336 9.01536H6.29754V14.5678H6.19336C6.02603 14.5676 5.86559 14.5011 5.74725 14.3828C5.6289 14.2645 5.5623 14.1041 5.56207 13.9368V9.64636H5.56219ZM9.2993 18.4904H20.7005C21.4122 18.4895 22.1004 18.236 22.6428 17.7753C23.1851 17.3145 23.5464 16.6762 23.6623 15.9741H23.8066C23.8337 15.9741 23.86 15.973 23.8862 15.9719C24.7095 18.2751 24.6077 20.8079 23.6021 23.0376C22.677 20.7377 20.4158 19.1203 17.8242 19.1203H12.1758C9.58406 19.1203 7.32316 20.7377 6.39779 23.0376C5.39218 20.8079 5.29033 18.2751 6.11367 15.9719C6.14021 15.973 6.16641 15.9741 6.19354 15.9741H6.33756C6.45346 16.6762 6.81474 17.3145 7.35709 17.7753C7.89945 18.236 8.58769 18.4895 9.29936 18.4904H9.2993ZM7.70396 8.09468V15.4882C7.70431 15.9113 7.87248 16.3169 8.17157 16.6161C8.47066 16.9153 8.87624 17.0836 9.2993 17.0841H20.7005C21.1236 17.0836 21.5292 16.9153 21.8284 16.6161C22.1275 16.3169 22.2957 15.9113 22.2962 15.4882V8.09468C22.2957 7.67163 22.1274 7.26604 21.8283 6.9669C21.5292 6.66776 21.1236 6.4995 20.7005 6.49905H9.2993C8.87628 6.49952 8.47073 6.66779 8.17164 6.96693C7.87255 7.26608 7.70435 7.67166 7.70396 8.09468ZM24.4376 9.64636V13.9368C24.4375 14.1041 24.3709 14.2645 24.2526 14.3828C24.1343 14.5011 23.9739 14.5676 23.8066 14.5678H23.7024V9.01536H23.8066C23.9739 9.01553 24.1343 9.08207 24.2526 9.20037C24.3709 9.31866 24.4375 9.47906 24.4376 9.64636ZM15 28.5937C16.4809 28.5935 17.9409 28.2446 19.2618 27.5752C20.5828 26.9058 21.7275 25.9347 22.6033 24.7405C22.4524 23.5784 21.8847 22.5105 21.0057 21.7354C20.1267 20.9604 18.9961 20.5308 17.8242 20.5266H12.1758C11.0039 20.5308 9.87334 20.9604 8.99436 21.7355C8.11538 22.5107 7.54773 23.5786 7.39693 24.7408C8.27274 25.9348 9.41743 26.9059 10.7383 27.5752C12.0592 28.2446 13.5192 28.5935 15 28.5937ZM15 1.4062C15.1708 1.40623 15.3378 1.4569 15.4798 1.55181C15.6218 1.64673 15.7325 1.78162 15.7978 1.93943C15.8631 2.09725 15.8802 2.27089 15.8469 2.43841C15.8135 2.60593 15.7313 2.7598 15.6105 2.88057C15.4897 3.00133 15.3358 3.08356 15.1682 3.11686C15.0007 3.15016 14.8271 3.13303 14.6693 3.06765C14.5115 3.00226 14.3766 2.89155 14.2817 2.74952C14.1869 2.60748 14.1362 2.44051 14.1363 2.2697C14.1365 2.04073 14.2276 1.82122 14.3896 1.65934C14.5515 1.49746 14.771 1.40642 15 1.4062ZM15 30.0002C20.9795 30.0002 25.8441 25.1357 25.8441 19.1562C25.8463 17.8862 25.6239 16.6257 25.187 15.4332C25.3942 15.2429 25.5596 15.0116 25.6727 14.754C25.7858 14.4964 25.8441 14.2181 25.8441 13.9368V9.64636C25.8434 9.10623 25.6286 8.58841 25.2466 8.20649C24.8647 7.82456 24.3469 7.60971 23.8068 7.60905H23.6624C23.5465 6.90689 23.1853 6.26863 22.6429 5.80785C22.1006 5.34708 21.4123 5.09368 20.7006 5.09275H15.7031V4.42747C16.2168 4.2601 16.654 3.91498 16.936 3.45415C17.218 2.99332 17.3264 2.447 17.2417 1.91341C17.1569 1.37982 16.8846 0.893954 16.4737 0.543155C16.0628 0.192356 15.5403 -0.000366211 15 -0.000366211C14.4597 -0.000366211 13.9372 0.192356 13.5263 0.543155C13.1154 0.893954 12.8431 1.37982 12.7583 1.91341C12.6736 2.447 12.782 2.99332 13.064 3.45415C13.346 3.91498 13.7832 4.2601 14.2969 4.42747V5.09275H9.29941C8.58775 5.09368 7.8995 5.34708 7.35715 5.80785C6.8148 6.26863 6.45352 6.90689 6.33762 7.60905H6.19336C5.6532 7.60969 5.13534 7.82453 4.75337 8.20645C4.37139 8.58837 4.15648 9.1062 4.15576 9.64636V13.9368C4.15569 14.2181 4.21406 14.4964 4.32718 14.754C4.4403 15.0116 4.6057 15.2429 4.81289 15.4332C4.37617 16.6258 4.15374 17.8862 4.15588 19.1562C4.15588 25.1357 9.02045 30.0002 14.9999 30.0002H15ZM13.3659 13.4707C13.5217 13.7694 13.7565 14.0196 14.0446 14.1943C14.3327 14.3689 14.6631 14.4613 15.0001 14.4613C15.337 14.4613 15.6674 14.3689 15.9555 14.1943C16.2437 14.0196 16.4784 13.7694 16.6342 13.4707C16.6769 13.3888 16.7354 13.3161 16.8061 13.2568C16.8769 13.1975 16.9587 13.1528 17.0468 13.1251C17.1349 13.0974 17.2275 13.0873 17.3195 13.0955C17.4115 13.1036 17.501 13.1297 17.5828 13.1724C17.6647 13.2151 17.7374 13.2736 17.7967 13.3443C17.8559 13.4151 17.9007 13.4969 17.9284 13.585C17.9561 13.6731 17.9662 13.7657 17.958 13.8577C17.9499 13.9497 17.9238 14.0392 17.8811 14.121C17.6063 14.6476 17.1925 15.0887 16.6846 15.3965C16.1767 15.7044 15.5942 15.8672 15.0003 15.8672C14.4064 15.8672 13.8239 15.7044 13.316 15.3965C12.8081 15.0887 12.3943 14.6476 12.1196 14.121C12.0741 14.039 12.0454 13.9486 12.0353 13.8553C12.0253 13.762 12.034 13.6676 12.061 13.5778C12.088 13.4879 12.1327 13.4043 12.1924 13.3319C12.2522 13.2596 12.3259 13.2 12.4091 13.1566C12.4923 13.1131 12.5834 13.0868 12.6769 13.0791C12.7704 13.0715 12.8646 13.0826 12.9537 13.1119C13.0429 13.1411 13.1253 13.188 13.1961 13.2496C13.2669 13.3112 13.3246 13.3864 13.3659 13.4707ZM19.0347 10.0926C19.1371 10.0925 19.2372 10.1228 19.3224 10.1797C19.4075 10.2365 19.4739 10.3174 19.5131 10.412C19.5524 10.5065 19.5626 10.6106 19.5427 10.7111C19.5227 10.8115 19.4735 10.9038 19.4011 10.9762C19.3287 11.0486 19.2364 11.0979 19.136 11.1179C19.0356 11.1379 18.9315 11.1277 18.8369 11.0885C18.7423 11.0493 18.6614 10.983 18.6045 10.8979C18.5476 10.8127 18.5173 10.7126 18.5173 10.6102C18.5174 10.473 18.5719 10.3414 18.6689 10.2444C18.7659 10.1473 18.8975 10.0927 19.0347 10.0926ZM19.0347 12.5342C18.6542 12.5342 18.2822 12.4213 17.9659 12.2098C17.6495 11.9984 17.403 11.6979 17.2574 11.3463C17.1118 10.9948 17.0737 10.6079 17.148 10.2347C17.2223 9.86155 17.4055 9.51875 17.6746 9.2497C17.9437 8.98065 18.2865 8.79743 18.6597 8.7232C19.0329 8.64898 19.4197 8.68708 19.7713 8.83269C20.1228 8.9783 20.4233 9.22489 20.6347 9.54126C20.8461 9.85764 20.959 10.2296 20.959 10.6101C20.9584 11.1202 20.7555 11.6093 20.3947 11.97C20.034 12.3307 19.5449 12.5336 19.0348 12.5341L19.0347 12.5342ZM10.9651 10.0924C11.0675 10.0924 11.1676 10.1228 11.2527 10.1797C11.3379 10.2366 11.4042 10.3174 11.4434 10.412C11.4826 10.5066 11.4928 10.6107 11.4728 10.7111C11.4529 10.8115 11.4036 10.9038 11.3312 10.9762C11.2588 11.0486 11.1665 11.0979 11.0661 11.1178C10.9657 11.1378 10.8616 11.1276 10.767 11.0884C10.6724 11.0492 10.5916 10.9828 10.5347 10.8977C10.4778 10.8126 10.4474 10.7125 10.4474 10.6101C10.4475 10.4728 10.5021 10.3412 10.5992 10.2441C10.6962 10.1471 10.8278 10.0925 10.9651 10.0924ZM10.9651 12.5341C10.5846 12.5342 10.2126 12.4214 9.89613 12.21C9.57969 11.9986 9.33305 11.6981 9.18738 11.3466C9.04171 10.995 9.00357 10.6082 9.07777 10.2349C9.15198 9.8617 9.3352 9.51885 9.60426 9.24975C9.87332 8.98065 10.2161 8.79738 10.5894 8.72311C10.9626 8.64885 11.3495 8.68694 11.701 8.83255C12.0526 8.97816 12.3531 9.22477 12.5645 9.54117C12.776 9.85757 12.8888 10.2296 12.8888 10.6101C12.8882 11.1202 12.6854 11.6092 12.3248 11.9699C11.9641 12.3305 11.4752 12.5335 10.9651 12.5341Z" fill="black"/>
</g>
<defs>
<clipPath id="clip0_932_2009">
<rect width="30" height="30" fill="white"/>
</clipPath>
</defs>
</svg>
